<svg id="ab3c8fa1-79e2-41a0-82ef-979958fbdda9" data-name="Layer 1" xmlns="http://www.w3.org/2000/svg" viewBox="0 0 200.36 200.36">
  <defs>
    <style>
      .f5fa6e77-2bc6-4774-b593-f3d2802afd11 {
        fill: none;
        stroke: #005eb8;
        stroke-linecap: round;
        stroke-linejoin: round;
        stroke-width: 8px;
      }
    </style>
  </defs>
  <g id="b93e8afe-bf5b-4e1d-b43c-9e1c59320134" data-name="Layer 2">
    <circle class="f5fa6e77-2bc6-4774-b593-f3d2802afd11" cx="100.18" cy="100.18" r="96.18"/>
    <path class="f5fa6e77-2bc6-4774-b593-f3d2802afd11" d="M87.55,93.71l46-1v76.45c0,2.08.65,3.57,2,4.45a12.56,12.56,0,0,0,7.16,1.9h13v7.12H90v-7.12h12.17c3.62,0,6.27-.67,8-2a7.12,7.12,0,0,0,2.53-5.93v-56a9.08,9.08,0,0,0-3.94-8c-2.61-1.8-6.54-2.71-11.72-2.71H87.55ZM120.66,46a13.68,13.68,0,0,1,10,4.27,13.86,13.86,0,0,1,4.28,10.08,14.19,14.19,0,0,1-14.11,14,14.4,14.4,0,0,1-14.23-14.1,13.62,13.62,0,0,1,4.29-10A13.5,13.5,0,0,1,120.66,46Z" transform="translate(-21.64 -20.37)"/>
  </g>
</svg>
