<svg id="f4911cbd-4618-4874-bb3b-3cd10e2cb297" data-name="Layer 1" xmlns="http://www.w3.org/2000/svg" viewBox="0 0 218 158">
  <defs>
    <style>
      .b8c57184-379f-4331-9e41-b669cc627027, .ebb8c516-b4a9-442c-8569-50859ada8fc8 {
        fill: none;
        stroke: #005eb8;
        stroke-width: 8px;
      }

      .b8c57184-379f-4331-9e41-b669cc627027 {
        stroke-miterlimit: 10;
      }

      .ebb8c516-b4a9-442c-8569-50859ada8fc8 {
        stroke-linecap: round;
        stroke-linejoin: round;
      }
    </style>
  </defs>
  <circle class="b8c57184-379f-4331-9e41-b669cc627027" cx="109" cy="79" r="60"/>
  <path class="ebb8c516-b4a9-442c-8569-50859ada8fc8" d="M21.6,45.2h198a6,6,0,0,1,6,6v138a6,6,0,0,1-6,6H21.6a6,6,0,0,1-6-6V51.2A6,6,0,0,1,21.6,45.2Z" transform="translate(-11.6 -41.2)"/>
  <path class="ebb8c516-b4a9-442c-8569-50859ada8fc8" d="M141.9,94.7C139.5,83.5,128.5,80,123.5,80c-10.8,0-19,8.7-18.5,18.2.2,4,1.9,8.6,3,11.9a57.33,57.33,0,0,1,2,11.4c.5,6.2-2.7,14-4.8,17.4-2,3.2-3.5,6.1-5.7,8.6-.1.3-3.8,3.6-3.5,3.4,20.9-13.1,33.8,4.1,48.2-2.5" transform="translate(-11.6 -41.2)"/>
  <path class="ebb8c516-b4a9-442c-8569-50859ada8fc8" d="M96.5,116.1h30" transform="translate(-11.6 -41.2)"/>
</svg>
