<svg id="ae59555a-9718-4a51-bbd4-5b87122be5d1" data-name="Layer 1" xmlns="http://www.w3.org/2000/svg" viewBox="0 0 67.05 27">
  <defs>
    <style>
      .a3600b6a-7113-4ae4-b56e-370d5bc0dbda {
        fill: #fff;
      }
    </style>
  </defs>
  <path class="a3600b6a-7113-4ae4-b56e-370d5bc0dbda" d="M67.05,27V0H0V27ZM27,2.61,22.33,24.34H15.07l-4.57-15h-.06l-3,15H1.89L6.56,2.61h7.28l4.48,15.07h.06L21.45,2.61Zm20.77,0L43.2,24.34H37.35L39.29,15H32.37l-1.94,9.31H24.58L29.12,2.58H35l-1.72,8.31h6.91l1.72-8.31Zm16.81.59L63.17,7.53a11,11,0,0,0-4.82-1c-2.31,0-4.19.34-4.19,2.09,0,3.08,8.48,1.93,8.48,8.53,0,6-5.6,7.56-10.67,7.56a24.66,24.66,0,0,1-6.76-1.12l1.38-4.42A11.41,11.41,0,0,0,52,20.42c1.81,0,4.66-.35,4.66-2.59,0-3.49-8.48-2.18-8.48-8.31,0-5.61,4.94-7.29,9.73-7.29a17.75,17.75,0,0,1,6.7,1Z"/>
</svg>
